<svg width="134" height="44" viewBox="0 0 134 44" fill="none" xmlns="http://www.w3.org/2000/svg">
<g clip-path="url(#clip0)">
<path d="M134 0H0V44H134V0Z" fill="white"/>
<path d="M145.153 -24.8282L143.049 -26.519L137.138 -26.5348L145.162 -20.0805L145.153 -24.8282Z" fill="#E0283F"/>
<path d="M145.168 -16.3886L132.54 -26.5466L126.628 -26.5619L145.177 -11.6415L145.168 -16.3886Z" fill="#E0283F"/>
<path d="M145.184 -7.94914L122.03 -26.5738L116.118 -26.5891L145.192 -3.20247L145.184 -7.94914Z" fill="#E0283F"/>
<path d="M145.199 0.489431L111.52 -26.6009L105.609 -26.6162L145.208 5.23659L145.199 0.489431Z" fill="#E0283F"/>
<path d="M145.215 8.92843L101.011 -26.6281L95.0993 -26.6434L145.224 13.6756L145.215 8.92843Z" fill="#E0283F"/>
<path d="M145.231 17.3679L90.5014 -26.6553L84.5895 -26.6706L145.239 22.1146L145.231 17.3679Z" fill="#E0283F"/>
<path d="M145.246 25.807L79.9916 -26.6824L74.0802 -26.6977L145.255 30.5536L145.246 25.807Z" fill="#E0283F"/>
<path d="M145.262 34.2464L69.4813 -26.7096L63.5699 -26.7254L145.271 38.9931L145.262 34.2464Z" fill="#E0283F"/>
<path d="M145.277 42.685L58.9715 -26.7372L53.0606 -26.752L145.286 47.4317L145.277 42.685Z" fill="#E0283F"/>
<path d="M145.293 51.124L48.4622 -26.7644L42.5508 -26.7798L145.302 55.8711L145.293 51.124Z" fill="#E0283F"/>
<path d="M145.309 59.5635L37.9524 -26.7911L32.0405 -26.8064L145.317 64.3102L145.309 59.5635Z" fill="#E0283F"/>
<path d="M145.324 68.0025L27.4436 -26.8188L21.5317 -26.8336L145.333 72.7491L145.324 68.0025Z" fill="#E0283F"/>
<path d="M144.448 75.7245L16.9333 -26.8459L11.0214 -26.8612L138.537 75.7092L144.448 75.7245Z" fill="#E0283F"/>
<path d="M133.939 75.6974L6.42348 -26.8725L0.512062 -26.8883L128.027 75.6816L133.939 75.6974Z" fill="#E0283F"/>
<path d="M123.429 75.6697L-4.08632 -26.9002L-9.99824 -26.9155L117.518 75.6548L123.429 75.6697Z" fill="#E0283F"/>
<path d="M112.919 75.6425L-14.5966 -26.9274L-20.507 -26.9427L107.008 75.6272L112.919 75.6425Z" fill="#E0283F"/>
<path d="M102.409 75.6158L-25.1059 -26.9545L-26.627 -26.9585L-26.6205 -23.4336L96.4979 75.6L102.409 75.6158Z" fill="#E0283F"/>
<path d="M-26.6056 -14.994L85.9881 75.5729L91.9 75.5882L-26.614 -19.7412L-26.6056 -14.994Z" fill="#E0283F"/>
<path d="M-26.5887 -6.55505L75.4783 75.5457L81.3902 75.5615L-26.5981 -11.3022L-26.5887 -6.55505Z" fill="#E0283F"/>
<path d="M-26.5737 1.88396L64.969 75.519L70.8804 75.5338L-26.5817 -2.86271L-26.5737 1.88396Z" fill="#E0283F"/>
<path d="M-26.5588 10.323L54.4597 75.4919L60.3706 75.5067L-26.5667 5.57633L-26.5588 10.323Z" fill="#E0283F"/>
<path d="M-26.5419 18.762L43.9499 75.4642L49.8608 75.48L-26.5518 14.0153L-26.5419 18.762Z" fill="#E0283F"/>
<path d="M-26.527 27.201L33.4406 75.4371L39.3515 75.4524L-26.5354 22.4544L-26.527 27.201Z" fill="#E0283F"/>
<path d="M-26.5115 35.6405L22.9298 75.4099L28.8422 75.4252L-26.52 30.8938L-26.5115 35.6405Z" fill="#E0283F"/>
<path d="M-26.4956 44.079L12.4205 75.3827L18.3319 75.398L-26.5045 39.3324L-26.4956 44.079Z" fill="#E0283F"/>
<path d="M-26.4807 52.5185L1.91067 75.3556L7.82259 75.3709L-26.4891 47.7714L-26.4807 52.5185Z" fill="#E0283F"/>
<path d="M-26.4643 60.9571L-8.59964 75.3279L-2.68723 75.3437L-26.4737 56.2109L-26.4643 60.9571Z" fill="#E0283F"/>
<path d="M-26.4488 69.3966L-19.1084 75.3013L-13.197 75.3161L-26.4573 64.6499L-26.4488 69.3966Z" fill="#E0283F"/>
<path d="M-26.4379 75.282L-23.7068 75.2889L-26.4418 73.0889L-26.4379 75.282Z" fill="#E0283F"/>
<path d="M130 4H4V41H130V4Z" fill="#FFDA93"/>
</g>
<defs>
<clipPath id="clip0">
<rect width="134" height="44" fill="white"/>
</clipPath>
</defs>
</svg>
