<svg width="234" height="89" viewBox="0 0 234 89" fill="none" xmlns="http://www.w3.org/2000/svg">
<g clip-path="url(#clip0)">
<path d="M233.784 0.0137939H0.673828V88.9999H233.784V0.0137939Z" fill="white"/>
<path d="M290.785 0.809887L223.343 -53.4386L211.506 -53.4692L290.803 10.3161L290.785 0.809887Z" fill="#E0283F"/>
<path d="M290.815 17.7091L202.298 -53.4929L190.459 -53.5236L290.833 27.2153L290.815 17.7091Z" fill="#E0283F"/>
<path d="M290.848 34.609L181.253 -53.5475L169.414 -53.5781L290.865 44.1142L290.848 34.609Z" fill="#E0283F"/>
<path d="M290.879 51.5083L160.207 -53.6017L148.369 -53.6323L290.897 61.0135L290.879 51.5083Z" fill="#E0283F"/>
<path d="M290.91 68.4084L139.16 -53.6561L127.322 -53.6877L290.928 77.9136L290.91 68.4084Z" fill="#E0283F"/>
<path d="M290.942 85.3066L118.114 -53.7114L106.277 -53.7411L290.959 94.8118L290.942 85.3066Z" fill="#E0283F"/>
<path d="M290.974 102.206L97.07 -53.766L85.2324 -53.7966L290.992 111.712L290.974 102.206Z" fill="#E0283F"/>
<path d="M291.005 119.106L76.0242 -53.8193L64.1855 -53.85L291.022 128.611L291.005 119.106Z" fill="#E0283F"/>
<path d="M291.034 136.005L54.9792 -53.8748L43.1406 -53.9044L291.053 145.51L291.034 136.005Z" fill="#E0283F"/>
<path d="M289.281 151.468L33.9324 -53.9291L22.0938 -53.9597L277.444 151.437L289.281 151.468Z" fill="#E0283F"/>
<path d="M268.236 151.414L12.8864 -53.9824L1.04883 -54.014L256.398 151.382L268.236 151.414Z" fill="#E0283F"/>
<path d="M247.19 151.358L-8.15943 -54.0378L-19.998 -54.0685L235.352 151.329L247.19 151.358Z" fill="#E0283F"/>
<path d="M226.145 151.304L-29.2054 -54.0923L-41.041 -54.1229L214.307 151.273L226.145 151.304Z" fill="#E0283F"/>
<path d="M205.097 151.251L-50.251 -54.1466L-53.2969 -54.1545L-53.2839 -47.0959L193.261 151.219L205.097 151.251Z" fill="#E0283F"/>
<path d="M-53.2545 -30.1957L172.214 151.165L184.053 151.195L-53.2715 -39.7019L-53.2545 -30.1957Z" fill="#E0283F"/>
<path d="M-53.2194 -13.2967L151.17 151.11L163.008 151.142L-53.2383 -22.8029L-53.2194 -13.2967Z" fill="#E0283F"/>
<path d="M-53.1911 3.60249L130.123 151.057L141.961 151.086L-53.207 -5.90271L-53.1911 3.60249Z" fill="#E0283F"/>
<path d="M-53.1598 20.5017L109.08 151.002L120.916 151.032L-53.1758 10.9965L-53.1598 20.5017Z" fill="#E0283F"/>
<path d="M-53.1266 37.4007L88.0332 150.947L99.8698 150.979L-53.1465 27.8955L-53.1266 37.4007Z" fill="#E0283F"/>
<path d="M-53.0963 54.2999L66.9886 150.893L78.8252 150.923L-53.1133 44.7947L-53.0963 54.2999Z" fill="#E0283F"/>
<path d="M-53.0651 71.2L45.9411 150.838L57.7807 150.869L-53.082 61.6948L-53.0651 71.2Z" fill="#E0283F"/>
<path d="M-53.0348 88.0981L24.8946 150.784L36.7323 150.814L-53.0527 78.5929L-53.0348 88.0981Z" fill="#E0283F"/>
<path d="M227.286 4.25122H6.0957V83.9715H227.286V4.25122Z" fill="#FFDA93"/>
</g>
<defs>
<clipPath id="clip0">
<rect width="233.146" height="89" fill="white" transform="translate(0.673828)"/>
</clipPath>
</defs>
</svg>
