<svg width="234" height="89" viewBox="0 0 234 89" fill="none" xmlns="http://www.w3.org/2000/svg">
<g clip-path="url(#clip0)">
<path d="M233.289 0.0137939H0.179688V88.9999H233.289V0.0137939Z" fill="white"/>
<path d="M290.289 0.809887L222.847 -53.4386L211.01 -53.4692L290.307 10.3161L290.289 0.809887Z" fill="#E0283F"/>
<path d="M290.321 17.7091L201.803 -53.4929L189.965 -53.5236L290.339 27.2153L290.321 17.7091Z" fill="#E0283F"/>
<path d="M290.352 34.609L180.757 -53.5475L168.918 -53.5781L290.369 44.1142L290.352 34.609Z" fill="#E0283F"/>
<path d="M290.383 51.5083L159.711 -53.6017L147.873 -53.6323L290.401 61.0135L290.383 51.5083Z" fill="#E0283F"/>
<path d="M290.414 68.4084L138.664 -53.6561L126.826 -53.6877L290.432 77.9136L290.414 68.4084Z" fill="#E0283F"/>
<path d="M290.447 85.3066L117.62 -53.7114L105.783 -53.7411L290.464 94.8118L290.447 85.3066Z" fill="#E0283F"/>
<path d="M290.477 102.206L96.574 -53.766L84.7363 -53.7966L290.495 111.712L290.477 102.206Z" fill="#E0283F"/>
<path d="M290.509 119.106L75.5281 -53.8193L63.6895 -53.85L290.526 128.611L290.509 119.106Z" fill="#E0283F"/>
<path d="M290.54 136.005L54.4851 -53.8748L42.6465 -53.9044L290.559 145.51L290.54 136.005Z" fill="#E0283F"/>
<path d="M288.786 151.468L33.4382 -53.9291L21.5996 -53.9597L276.95 151.437L288.786 151.468Z" fill="#E0283F"/>
<path d="M267.741 151.414L12.3913 -53.9824L0.553711 -54.014L255.903 151.382L267.741 151.414Z" fill="#E0283F"/>
<path d="M246.695 151.358L-8.65455 -54.0378L-20.4932 -54.0685L234.857 151.329L246.695 151.358Z" fill="#E0283F"/>
<path d="M225.649 151.304L-29.7015 -54.0923L-41.5371 -54.1229L213.811 151.273L225.649 151.304Z" fill="#E0283F"/>
<path d="M204.602 151.251L-50.7462 -54.1466L-53.792 -54.1545L-53.779 -47.0959L192.766 151.219L204.602 151.251Z" fill="#E0283F"/>
<path d="M-53.7487 -30.1957L171.72 151.165L183.559 151.195L-53.7656 -39.7019L-53.7487 -30.1957Z" fill="#E0283F"/>
<path d="M-53.7154 -13.2967L150.674 151.11L162.512 151.142L-53.7344 -22.8029L-53.7154 -13.2967Z" fill="#E0283F"/>
<path d="M-53.6852 3.60249L129.629 151.057L141.467 151.086L-53.7012 -5.90271L-53.6852 3.60249Z" fill="#E0283F"/>
<path d="M-53.6559 20.5017L108.584 151.002L120.42 151.032L-53.6719 10.9965L-53.6559 20.5017Z" fill="#E0283F"/>
<path d="M-53.6217 37.4007L87.538 150.947L99.3747 150.979L-53.6416 27.8955L-53.6217 37.4007Z" fill="#E0283F"/>
<path d="M-53.5915 54.2999L66.4935 150.893L78.3301 150.923L-53.6084 44.7947L-53.5915 54.2999Z" fill="#E0283F"/>
<path d="M-53.5612 71.2L45.445 150.838L57.2846 150.869L-53.5781 61.6948L-53.5612 71.2Z" fill="#E0283F"/>
<path d="M-53.5289 88.0981L24.4005 150.784L36.2381 150.814L-53.5469 78.5929L-53.5289 88.0981Z" fill="#E0283F"/>
<path d="M226.792 4.25122H5.60156V83.9715H226.792V4.25122Z" fill="white"/>
</g>
<defs>
<clipPath id="clip0">
<rect width="233.146" height="89" fill="white" transform="translate(0.179688)"/>
</clipPath>
</defs>
</svg>
