<svg width="50" height="50" viewBox="0 0 50 50" fill="none" xmlns="http://www.w3.org/2000/svg">
<path d="M50 25C50 11.195 38.805 0 25 0C11.195 0 0 11.195 0 25C0 38.805 11.195 50 25 50C25.1469 50 25.293 49.9969 25.4395 49.9943V30.5328H20.0684V24.2733H25.4395V19.6671C25.4395 14.325 28.7006 11.4174 33.466 11.4174C35.7479 11.4174 37.7094 11.5875 38.2812 11.6634V17.2466H34.9953C32.4028 17.2466 31.9008 18.4788 31.9008 20.2866V24.2733H38.0997L37.2917 30.5328H31.9008V49.0341C42.3504 46.0384 50 36.4113 50 25Z" fill="#FFDA93"/>
</svg>
